<svg id="Layer_1" data-name="Layer 1" xmlns="http://www.w3.org/2000/svg" viewBox="0 0 504.59 498.46"><defs><style>.cls-1,.cls-10,.cls-11,.cls-12,.cls-13,.cls-14,.cls-15,.cls-2,.cls-3,.cls-4,.cls-5,.cls-6,.cls-7,.cls-8,.cls-9{fill:none;stroke:#264ff9;stroke-miterlimit:10;}.cls-2{stroke-width:2px;}.cls-10,.cls-11,.cls-12,.cls-13,.cls-14,.cls-15,.cls-3,.cls-4,.cls-5,.cls-6,.cls-7,.cls-8,.cls-9{stroke-linecap:round;}.cls-4{stroke-dasharray:0 1.96;}.cls-5{stroke-dasharray:0 1.95;}.cls-6{stroke-dasharray:0 1.99;}.cls-7{stroke-dasharray:0 1.89;}.cls-8{stroke-dasharray:0 1.94;}.cls-9{stroke-dasharray:0 1.95;}.cls-10{stroke-dasharray:0 1.95;}.cls-11{stroke-dasharray:0 1.97;}.cls-12{stroke-dasharray:0 2.02;}.cls-13{stroke-dasharray:0 2.01;}.cls-14{stroke-dasharray:0 1.99;}.cls-15{stroke-dasharray:0 1.99;}</style></defs><title>vault_line_blue</title><path class="cls-1" d="M170.56,101.91A212.39,212.39,0,0,1,279,72.35c105.75,0,193.54,76.93,210.44,177.88" transform="translate(-23.63 -36.5)"/><path class="cls-1" d="M99.13,400.59a213.56,213.56,0,0,1-1-228.14" transform="translate(-23.63 -36.5)"/><path class="cls-1" d="M489.35,321.63C472.29,422.38,384.59,499.11,279,499.11A212.35,212.35,0,0,1,171.7,470.21" transform="translate(-23.63 -36.5)"/><path class="cls-1" d="M93.23,408.05a222.54,222.54,0,0,1-1.08-243" transform="translate(-23.63 -36.5)"/><path class="cls-1" d="M156.59,100A221.34,221.34,0,0,1,279,63.35c122.82,0,222.38,99.56,222.38,222.38S401.8,508.11,279,508.11a221.34,221.34,0,0,1-119.84-35" transform="translate(-23.63 -36.5)"/><path class="cls-2" d="M65.57,412.59A248.52,248.52,0,0,1,64.3,161" transform="translate(-23.63 -36.5)"/><path class="cls-2" d="M395.48,505a248.41,248.41,0,0,1-278.94-31.55" transform="translate(-23.63 -36.5)"/><path class="cls-2" d="M379.86,58.85c86.82,38.66,147.35,125.7,147.35,226.88a247.78,247.78,0,0,1-93.83,194.38" transform="translate(-23.63 -36.5)"/><path class="cls-2" d="M114.22,100.06A248.71,248.71,0,0,1,343.31,45.91" transform="translate(-23.63 -36.5)"/><path class="cls-1" d="M462,310.54a4,4,0,0,1-4,4H424.57a4,4,0,0,1-4-4V266.77a4,4,0,0,1,4-4H458a4,4,0,0,1,4,4v43.77Z" transform="translate(-23.63 -36.5)"/><polygon class="cls-1" points="251.53 489.95 248.78 485.2 251.53 480.44 257.02 480.44 259.77 485.2 257.02 489.95 251.53 489.95"/><polygon class="cls-1" points="418.55 84.92 415.8 80.16 418.55 75.4 424.04 75.4 426.79 80.16 424.04 84.92 418.55 84.92"/><polygon class="cls-1" points="471.55 163.92 468.81 159.17 471.55 154.41 477.05 154.41 479.79 159.17 477.05 163.92 471.55 163.92"/><polygon class="cls-1" points="488.89 254.92 486.14 250.17 488.89 245.41 494.38 245.41 497.12 250.17 494.38 254.92 488.89 254.92"/><polygon class="cls-1" points="471.22 345.26 468.47 340.5 471.22 335.74 476.71 335.74 479.46 340.5 476.71 345.26 471.22 345.26"/><polygon class="cls-1" points="420.22 421.59 417.47 416.83 420.22 412.08 425.71 412.08 428.46 416.83 425.71 421.59 420.22 421.59"/><polygon class="cls-1" points="343.55 473.17 340.8 468.42 343.55 463.66 349.04 463.66 351.79 468.42 349.04 473.17 343.55 473.17"/><polygon class="cls-1" points="162.88 472.51 160.14 467.75 162.88 462.99 168.38 462.99 171.12 467.75 168.38 472.51 162.88 472.51"/><polygon class="cls-1" points="34.88 345.17 32.14 340.42 34.88 335.66 40.38 335.66 43.12 340.42 40.38 345.17 34.88 345.17"/><polygon class="cls-1" points="16.55 254.84 13.8 250.08 16.55 245.33 22.04 245.33 24.79 250.08 22.04 254.84 16.55 254.84"/><polygon class="cls-1" points="35.22 164.84 32.47 160.08 35.22 155.33 40.71 155.33 43.45 160.08 40.71 164.84 35.22 164.84"/><polygon class="cls-1" points="162.55 36.51 159.8 31.75 162.55 26.99 168.04 26.99 170.79 31.75 168.04 36.51 162.55 36.51"/><polygon class="cls-1" points="252.88 19.51 250.14 14.75 252.88 9.99 258.38 9.99 261.12 14.75 258.38 19.51 252.88 19.51"/><polygon class="cls-1" points="233.27 55.84 230.52 51.08 233.27 46.33 238.76 46.33 241.51 51.08 238.76 55.84 233.27 55.84"/><polygon class="cls-1" points="233.27 71.17 230.52 66.42 233.27 61.66 238.76 61.66 241.51 66.42 238.76 71.17 233.27 71.17"/><polygon class="cls-1" points="233.27 86.5 230.52 81.75 233.27 76.99 238.76 76.99 241.51 81.75 238.76 86.5 233.27 86.5"/><polygon class="cls-1" points="272.6 55.84 269.86 51.08 272.6 46.33 278.09 46.33 280.84 51.08 278.09 55.84 272.6 55.84"/><polygon class="cls-1" points="272.6 71.17 269.86 66.42 272.6 61.66 278.09 61.66 280.84 66.42 278.09 71.17 272.6 71.17"/><polygon class="cls-1" points="272.6 86.5 269.86 81.75 272.6 76.99 278.09 76.99 280.84 81.75 278.09 86.5 272.6 86.5"/><polygon class="cls-1" points="6.23 29.84 3.48 25.08 6.23 20.33 11.72 20.33 14.47 25.08 11.72 29.84 6.23 29.84"/><polygon class="cls-1" points="6.23 45.17 3.48 40.42 6.23 35.66 11.72 35.66 14.47 40.42 11.72 45.17 6.23 45.17"/><polygon class="cls-1" points="6.23 60.51 3.48 55.75 6.23 50.99 11.72 50.99 14.47 55.75 11.72 60.51 6.23 60.51"/><polygon class="cls-1" points="45.56 29.84 42.82 25.08 45.56 20.33 51.06 20.33 53.8 25.08 51.06 29.84 45.56 29.84"/><polygon class="cls-1" points="45.56 45.17 42.82 40.42 45.56 35.66 51.06 35.66 53.8 40.42 51.06 45.17 45.56 45.17"/><polygon class="cls-1" points="45.56 60.51 42.82 55.75 45.56 50.99 51.06 50.99 53.8 55.75 51.06 60.51 45.56 60.51"/><polygon class="cls-1" points="5.23 448.84 2.48 444.08 5.23 439.33 10.72 439.33 13.47 444.08 10.72 448.84 5.23 448.84"/><polygon class="cls-1" points="5.23 464.17 2.48 459.42 5.23 454.66 10.72 454.66 13.47 459.42 10.72 464.17 5.23 464.17"/><polygon class="cls-1" points="5.23 479.5 2.48 474.75 5.23 469.99 10.72 469.99 13.47 474.75 10.72 479.5 5.23 479.5"/><polygon class="cls-1" points="45.56 448.84 42.82 444.08 45.56 439.33 51.06 439.33 53.8 444.08 51.06 448.84 45.56 448.84"/><polygon class="cls-1" points="45.56 464.17 42.82 459.42 45.56 454.66 51.06 454.66 53.8 459.42 51.06 464.17 45.56 464.17"/><polygon class="cls-1" points="45.56 479.5 42.82 474.75 45.56 469.99 51.06 469.99 53.8 474.75 51.06 479.5 45.56 479.5"/><polygon class="cls-1" points="233.27 423.41 230.52 418.65 233.27 413.9 238.76 413.9 241.51 418.65 238.76 423.41 233.27 423.41"/><polygon class="cls-1" points="233.27 438.74 230.52 433.99 233.27 429.23 238.76 429.23 241.51 433.99 238.76 438.74 233.27 438.74"/><polygon class="cls-1" points="233.27 454.07 230.52 449.32 233.27 444.56 238.76 444.56 241.51 449.32 238.76 454.07 233.27 454.07"/><polygon class="cls-1" points="272.6 423.41 269.86 418.65 272.6 413.9 278.09 413.9 280.84 418.65 278.09 423.41 272.6 423.41"/><polygon class="cls-1" points="272.6 438.74 269.86 433.99 272.6 429.23 278.09 429.23 280.84 433.99 278.09 438.74 272.6 438.74"/><polygon class="cls-1" points="272.6 454.07 269.86 449.32 272.6 444.56 278.09 444.56 280.84 449.32 278.09 454.07 272.6 454.07"/><path class="cls-2" d="M497.83,314.33c-0.73,4.36-5.25,7.33-9.67,7.33H289a28.73,28.73,0,0,1-7.67-1L281,252.17a18.21,18.21,0,0,1,8-2H488.17a9.94,9.94,0,0,1,9.33,8.17,142,142,0,0,1,2.17,27C499.67,297.67,499,307.33,497.83,314.33Z" transform="translate(-23.63 -36.5)"/><path class="cls-2" d="M217.86,186.57h75.57V125.84l-65.88.12s-4.05.2-11.87-2c-12-3.37-37.25-20.62-48.5-23.25-1.3-.3-2.77-0.59-4.31-0.86h-126v60.86H80.43a20,20,0,0,1,20,20V392.86a20,20,0,0,1-20,20H36.86v60.57H155.65c4.2-.52,8.93-1.23,12.48-2.05,11.25-2.62,36.5-19.87,48.5-23.25,7.82-2.2,11.88-2,11.88-2l64.93,0.12V385.86H217.86a25,25,0,0,1-25-24.91V211.48A25,25,0,0,1,217.86,186.57Z" transform="translate(-23.63 -36.5)"/><polygon class="cls-1" points="316.07 62.17 314.92 60.18 316.07 58.19 318.37 58.19 319.52 60.18 318.37 62.17 316.07 62.17"/><polygon class="cls-1" points="371.82 90.62 370.67 88.63 371.82 86.64 374.12 86.64 375.27 88.63 374.12 90.62 371.82 90.62"/><polygon class="cls-1" points="415.99 134.37 414.84 132.38 415.99 130.39 418.29 130.39 419.43 132.38 418.29 134.37 415.99 134.37"/><polygon class="cls-1" points="444.39 190.15 443.24 188.16 444.39 186.17 446.69 186.17 447.84 188.16 446.69 190.15 444.39 190.15"/><polygon class="cls-1" points="444.39 313.52 443.24 311.53 444.39 309.54 446.69 309.54 447.84 311.53 446.69 313.52 444.39 313.52"/><polygon class="cls-1" points="415.99 369.09 414.84 367.1 415.99 365.11 418.29 365.11 419.43 367.1 418.29 369.09 415.99 369.09"/><polygon class="cls-1" points="371.82 413.05 370.67 411.06 371.82 409.06 374.12 409.06 375.27 411.06 374.12 413.05 371.82 413.05"/><polygon class="cls-1" points="316.25 441.66 315.1 439.67 316.25 437.68 318.55 437.68 319.7 439.67 318.55 441.66 316.25 441.66"/><polygon class="cls-1" points="193.09 441.66 191.94 439.67 193.09 437.68 195.38 437.68 196.53 439.67 195.38 441.66 193.09 441.66"/><polygon class="cls-1" points="65.93 314.17 64.78 312.18 65.93 310.19 68.23 310.19 69.38 312.18 68.23 314.17 65.93 314.17"/><polygon class="cls-1" points="55.08 251.82 53.93 249.83 55.08 247.84 57.38 247.84 58.52 249.83 57.38 251.82 55.08 251.82"/><polygon class="cls-1" points="64.74 190.15 63.59 188.16 64.74 186.17 67.04 186.17 68.19 188.16 67.04 190.15 64.74 190.15"/><polygon class="cls-1" points="193.08 62.32 191.93 60.33 193.08 58.34 195.38 58.34 196.52 60.33 195.38 62.32 193.08 62.32"/><path class="cls-1" d="M79.92,517.08a2,2,0,0,1-2,2H26.13a2,2,0,0,1-2-2v-41.9a2,2,0,0,1,2-2h51.8a2,2,0,0,1,2,2v41.9h0Z" transform="translate(-23.63 -36.5)"/><path class="cls-1" d="M79.92,98.08a2,2,0,0,1-2,2H26.13a2,2,0,0,1-2-2V56.18a2,2,0,0,1,2-2h51.8a2,2,0,0,1,2,2v41.9h0Z" transform="translate(-23.63 -36.5)"/><path class="cls-1" d="M307.92,123.08a2,2,0,0,1-2,2h-51.8a2,2,0,0,1-2-2V81.18a2,2,0,0,1,2-2h51.8a2,2,0,0,1,2,2v41.9Z" transform="translate(-23.63 -36.5)"/><path class="cls-1" d="M307.92,491.08a2,2,0,0,1-2,2h-51.8a2,2,0,0,1-2-2v-41.9a2,2,0,0,1,2-2h51.8a2,2,0,0,1,2,2v41.9Z" transform="translate(-23.63 -36.5)"/><path class="cls-1" d="M380,227.63a1,1,0,0,1-1,1H344.38a1,1,0,0,1-1-1V214a1,1,0,0,1,1-1H379a1,1,0,0,1,1,1v13.63Z" transform="translate(-23.63 -36.5)"/><path class="cls-1" d="M431.67,363.63a1,1,0,0,1-1,1H396a1,1,0,0,1-1-1V350a1,1,0,0,1,1-1h34.63a1,1,0,0,1,1,1v13.63Z" transform="translate(-23.63 -36.5)"/><path class="cls-1" d="M431.67,424.63a1,1,0,0,1-1,1H396a1,1,0,0,1-1-1V411a1,1,0,0,1,1-1h34.63a1,1,0,0,1,1,1v13.63Z" transform="translate(-23.63 -36.5)"/><path class="cls-1" d="M379.67,135.29a1,1,0,0,1-1,1H344a1,1,0,0,1-1-1V121.67a1,1,0,0,1,1-1h34.63a1,1,0,0,1,1,1v13.62Z" transform="translate(-23.63 -36.5)"/><polygon class="cls-1" points="243.13 348.59 246.04 346.17 265.38 346.17 268.38 348.5 243.13 348.59"/><polygon class="cls-1" points="243.46 42.92 246.38 40.5 265.71 40.5 268.71 42.84 243.46 42.92"/><polygon class="cls-1" points="13.3 376.02 16.56 372.7 38.19 372.7 41.55 375.91 13.3 376.02"/><polygon class="cls-1" points="14.12 125.05 17.39 128.37 39.02 128.37 42.37 125.16 14.12 125.05"/><path class="cls-1" d="M386.33,413.5a17.83,17.83,0,0,1-17.83,17.83h0a17.83,17.83,0,0,1-17.83-17.83V347.16a17.83,17.83,0,0,1,17.83-17.83h0a17.83,17.83,0,0,1,17.83,17.83V413.5h0Z" transform="translate(-23.63 -36.5)"/><circle class="cls-1" cx="344.71" cy="310.5" r="15"/><circle class="cls-1" cx="345.04" cy="376.5" r="15"/><circle class="cls-1" cx="345.38" cy="344.5" r="7.67"/><path class="cls-1" d="M405.9,286a17.5,17.5,0,0,0-34.81,0H405.9Z" transform="translate(-23.63 -36.5)"/><path class="cls-1" d="M371.3,291a17.49,17.49,0,0,0,34.4,0H371.3Z" transform="translate(-23.63 -36.5)"/><path class="cls-1" d="M388.5,263a24.48,24.48,0,0,0-7.07,1s-0.81.3-1.45-.93-2-4.86-3.14-6.61c-0.6-.93-2.27-1.09-3.27-0.64a26.94,26.94,0,0,0-6.77,4,43,43,0,0,0-5.87,5.83,2.3,2.3,0,0,0,.25,3.08c1.43,1,4.55,2.45,6.26,4.18,0.63,0.64-.22,1.84-0.22,1.84A24.39,24.39,0,0,0,363,288.5C363,302,375,313,388.5,313A24.5,24.5,0,0,0,413,288.5C413,275,402,263,388.5,263Z" transform="translate(-23.63 -36.5)"/><path class="cls-1" d="M362.34,297c-1.26.93-4.85,1.2-6.59,2.3-0.94.59-1,2.32-.55,3.39a30.59,30.59,0,0,0,4.33,7.19,48.88,48.88,0,0,0,6.2,6.33,2.31,2.31,0,0,0,3.16-.15c1-1.43,2.2-3.86,3.87-5.58A27.44,27.44,0,0,1,362.34,297Z" transform="translate(-23.63 -36.5)"/><line class="cls-1" x1="327.71" y1="99.76" x2="327.71" y2="176.66"/><line class="cls-3" x1="327.71" y1="84.12" x2="327.71" y2="84.12"/><line class="cls-4" x1="327.71" y1="86.07" x2="327.71" y2="98.78"/><line class="cls-3" x1="327.71" y1="99.76" x2="327.71" y2="99.76"/><line class="cls-1" x1="327.71" y1="38.66" x2="327.71" y2="84.12"/><line class="cls-3" x1="327.71" y1="3.5" x2="327.71" y2="3.5"/><line class="cls-5" x1="327.71" y1="5.46" x2="327.71" y2="37.68"/><line class="cls-3" x1="327.71" y1="38.66" x2="327.71" y2="38.66"/><line class="cls-3" x1="349.04" y1="47.31" x2="349.04" y2="47.31"/><line class="cls-6" x1="349.04" y1="45.32" x2="349.04" y2="4.5"/><line class="cls-3" x1="349.04" y1="3.5" x2="349.04" y2="3.5"/><line class="cls-1" x1="349.04" y1="84.23" x2="349.04" y2="47.31"/><line class="cls-3" x1="349.04" y1="99.33" x2="349.04" y2="99.33"/><line class="cls-7" x1="349.04" y1="97.44" x2="349.04" y2="85.17"/><line class="cls-3" x1="349.04" y1="84.23" x2="349.04" y2="84.23"/><path class="cls-1" d="M365.23,213.16V195.91a2.47,2.47,0,0,1,2.68-2.68h3.52c1.41,0,1.24-1.9,1.24-1.9V135.82" transform="translate(-23.63 -36.5)"/><line class="cls-3" x1="341.6" y1="192.14" x2="341.6" y2="192.14"/><line class="cls-8" x1="341.6" y1="190.21" x2="341.6" y2="177.63"/><line class="cls-3" x1="341.6" y1="176.66" x2="341.6" y2="176.66"/><polyline class="cls-1" points="327.71 192.28 327.71 213.5 341.6 213.5 341.6 192.14"/><line class="cls-3" x1="327.71" y1="176.66" x2="327.71" y2="176.66"/><line class="cls-9" x1="327.71" y1="178.61" x2="327.71" y2="191.31"/><line class="cls-3" x1="327.71" y1="192.28" x2="327.71" y2="192.28"/><path class="cls-1" d="M410.91,364.61v16.54a2.46,2.46,0,0,1-2.68,2.68h-2.58c-1.15,0-2,.86-2,2.51v23.38" transform="translate(-23.63 -36.5)"/><line class="cls-3" x1="387.28" y1="312.54" x2="387.28" y2="312.54"/><line class="cls-10" x1="387.28" y1="314.48" x2="387.28" y2="327.14"/><line class="cls-3" x1="387.28" y1="328.11" x2="387.28" y2="328.11"/><polyline class="cls-1" points="401.38 312.41 401.38 285.83 387.28 285.83 387.28 312.54"/><line class="cls-3" x1="401.38" y1="328.19" x2="401.38" y2="328.19"/><line class="cls-11" x1="401.38" y1="326.22" x2="401.38" y2="313.4"/><line class="cls-3" x1="401.38" y1="312.41" x2="401.38" y2="312.41"/><line class="cls-1" x1="401.38" y1="373.16" x2="401.38" y2="328.19"/><line class="cls-3" x1="401.38" y1="389.29" x2="401.38" y2="389.29"/><line class="cls-12" x1="401.38" y1="387.28" x2="401.38" y2="374.17"/><line class="cls-3" x1="401.38" y1="373.16" x2="401.38" y2="373.16"/><line class="cls-1" x1="401.38" y1="416.71" x2="401.38" y2="389.29"/><line class="cls-3" x1="401.38" y1="480.97" x2="401.38" y2="480.97"/><line class="cls-13" x1="401.38" y1="478.97" x2="401.38" y2="417.71"/><line class="cls-3" x1="401.38" y1="416.71" x2="401.38" y2="416.71"/><line class="cls-3" x1="380.04" y1="433.04" x2="380.04" y2="433.04"/><line class="cls-14" x1="380.04" y1="435.03" x2="380.04" y2="479.83"/><line class="cls-3" x1="380.04" y1="480.82" x2="380.04" y2="480.82"/><line class="cls-1" x1="380.04" y1="389.18" x2="380.04" y2="433.04"/><line class="cls-3" x1="380.04" y1="373.22" x2="380.04" y2="373.22"/><line class="cls-15" x1="380.04" y1="375.22" x2="380.04" y2="388.18"/><line class="cls-3" x1="380.04" y1="389.18" x2="380.04" y2="389.18"/><path class="cls-1" d="M404.15,321.88v1.48c1.14,0.16,2.42.3,3.51,0.47v1.68c-1.08.17-2.37,0.31-3.51,0.47v1.83c1.14,0.16,2.43.3,3.51,0.47v1.68c-1.08.17-2.37,0.31-3.51,0.46v1.83c1.14,0.16,2.43.3,3.51,0.47v1.68c-1.08.17-2.37,0.31-3.51,0.47v1.83c1.14,0.16,2.43.3,3.51,0.47v1.68c-1.08.17-2.37,0.31-3.51,0.47v1.83c1.14,0.16,2.43.3,3.51,0.47v1.68c-1.08.17-2.37,0.31-3.51,0.47v1.83c1.14,0.16,2.43.3,3.51,0.47v1.68c-1.08.17-2.37,0.31-3.51,0.47v0.92" transform="translate(-23.63 -36.5)"/><path class="cls-1" d="M407.73,364.76v1.11c-1.08.17-2.37,0.31-3.51,0.46v1.83c1.14,0.16,2.43.3,3.51,0.47v1.68c-1.08.17-2.37,0.31-3.51,0.46v1.83c1.14,0.16,2.43.3,3.51,0.47v1.68c-1.08.17-2.37,0.31-3.51,0.47V377c1.14,0.16,2.43.3,3.51,0.47v6" transform="translate(-23.63 -36.5)"/><path class="cls-1" d="M371.68,250.19v-0.82c-1.14-.16-2.42-0.3-3.51-0.47v-1.68c1.08-.17,2.37-0.31,3.51-0.47v-1.83c-1.14-.16-2.43-0.3-3.51-0.47v-1.68c1.08-.17,2.37-0.31,3.51-0.47v-1.83c-1.14-.16-2.42-0.3-3.51-0.47v-1.68c1.08-.16,2.37-0.31,3.51-0.46v-1.83c-1.14-.16-2.42-0.3-3.51-0.47v-1.68c1.08-.17,2.37-0.31,3.51-0.46v-1.83c-1.14-.16-2.42-0.3-3.51-0.47v-1.68c1.08-.17,2.37-0.31,3.51-0.47v-0.38" transform="translate(-23.63 -36.5)"/><path class="cls-1" d="M368.09,212.41v-1.11c1.08-.16,2.37-0.31,3.51-0.46V209c-1.14-.16-2.42-0.3-3.51-0.47v-1.68c1.08-.17,2.37-0.31,3.51-0.46v-1.83c-1.14-.16-2.42-0.3-3.51-0.47v-1.68c1.08-.17,2.37-0.31,3.51-0.47v-1.83c-1.14-.16-2.43-0.3-3.51-0.47v-6" transform="translate(-23.63 -36.5)"/><path class="cls-1" d="M379.56,87.35V40H343.33V72.81A221,221,0,0,1,379.56,87.35Z" transform="translate(-23.63 -36.5)"/><path class="cls-1" d="M395.73,475v43.41h37.5v-71.2h-1.38A223.2,223.2,0,0,1,395.73,475Z" transform="translate(-23.63 -36.5)"/><rect class="cls-2" x="242.44" y="410.55" width="27.13" height="46.1"/><rect class="cls-2" x="242.53" y="43.19" width="27.13" height="46.1"/><rect class="cls-2" x="14.38" y="17.63" width="27.13" height="46.1"/><rect class="cls-2" x="13.91" y="436.67" width="27.13" height="46.1"/><line class="cls-1" x1="348.31" y1="245.48" x2="352.35" y2="249.53"/><line class="cls-1" x1="349.25" y1="242.79" x2="355.97" y2="249.5"/><line class="cls-1" x1="350.73" y1="240.63" x2="359.47" y2="249.37"/><line class="cls-1" x1="352.76" y1="239.02" x2="363.23" y2="249.5"/><line class="cls-1" x1="354.46" y1="237.08" x2="366.76" y2="249.39"/><line class="cls-1" x1="356.78" y1="235.77" x2="370.44" y2="249.43"/><line class="cls-1" x1="359.17" y1="234.52" x2="374.09" y2="249.44"/><line class="cls-1" x1="362.39" y1="234.1" x2="377.86" y2="249.57"/><line class="cls-1" x1="365.96" y1="234.04" x2="381.5" y2="249.57"/><line class="cls-1" x1="370.28" y1="234.72" x2="381.65" y2="246.09"/><line class="cls-1" x1="381.31" y1="257.31" x2="378.38" y2="254.37"/><line class="cls-1" x1="380.38" y1="260.01" x2="374.82" y2="254.45"/><line class="cls-1" x1="378.85" y1="262.12" x2="371.28" y2="254.55"/><line class="cls-1" x1="377.09" y1="264" x2="367.52" y2="254.43"/><line class="cls-1" x1="375.14" y1="265.69" x2="364.04" y2="254.59"/><line class="cls-1" x1="372.9" y1="267.09" x2="360.36" y2="254.55"/><line class="cls-1" x1="370.28" y1="268.1" x2="356.63" y2="254.45"/><line class="cls-1" x1="367.23" y1="268.7" x2="352.99" y2="254.45"/><line class="cls-1" x1="363.66" y1="268.76" x2="349.42" y2="254.52"/><line class="cls-1" x1="359.05" y1="267.79" x2="348.34" y2="257.07"/></svg>